<svg width="48" height="49" viewBox="0 0 48 49" fill="none" xmlns="http://www.w3.org/2000/svg">
<g clip-path="url(#clip0_24_1636)">
<path d="M42.6065 24.4636H5.39356C3.59366 24.4636 2.12891 25.9408 2.12891 27.7563V28.0266L6.21847 45.911L6.27837 46.126C6.76494 47.6002 8.19584 48.6703 9.68019 48.6703H38.3206C39.805 48.6703 41.2356 47.6006 41.7224 46.126L45.8712 28.0267V27.7564C45.8709 25.9407 44.4064 24.4636 42.6065 24.4636ZM30.4498 44.1137L30.711 41.2062H32.8555L32.398 44.1137H30.4498ZM25.4871 44.1137V41.2062H27.7234L27.4622 44.1137H25.4871ZM20.5375 44.1137L20.2763 41.2062H22.5126V44.1137H20.5375ZM15.6022 44.1137L15.1443 41.2062H17.2891L17.5503 44.1137H15.6022ZM8.18666 35.0605H11.1628L11.637 38.0738H8.87581L8.18666 35.0605ZM14.1768 35.0605H16.7371L17.0078 38.0738H14.6513L14.1768 35.0605ZM16.1946 29.0202L16.4558 31.9279H13.6842L13.2267 29.0202H16.1946ZM34.7735 29.0202L34.316 31.9279H31.544L31.8052 29.0202H34.7735ZM28.5565 31.928H25.4868V29.0202H28.8179L28.5565 31.928ZM25.4871 35.0605H28.2757L28.005 38.0738H25.4874V35.0605H25.4871ZM22.513 38.0738H19.9953L19.7247 35.0605H22.5132V38.0738H22.513ZM22.513 31.928H19.443L19.1818 29.0202H22.513V31.928ZM30.992 38.0738L31.2626 35.0605H33.823L33.3485 38.0738H30.992ZM36.8372 35.0605H39.8134L39.1246 38.0738H36.3634L36.8372 35.0605ZM40.5295 31.928H37.3305L37.788 29.0202H41.1943L40.5295 31.928ZM10.2117 29.0202L10.6692 31.9279H7.47022L6.80525 29.0202H10.2117ZM9.59159 41.2062H12.1301L12.5876 44.1137H10.2566L9.59159 41.2062ZM37.7432 44.1137H35.4122L35.8697 41.2062H38.4079L37.7432 44.1137Z" fill="#C04935"/>
<path d="M48 27.8722C48 28.5473 47.4526 29.0947 46.7775 29.0947H1.2225C0.547406 29.0947 0 28.5473 0 27.8722V22.8851C0 22.21 0.547406 21.6626 1.2225 21.6626H46.7775C47.4526 21.6626 48 22.21 48 22.8851V27.8722Z" fill="#CD4E38"/>
<path d="M26.8616 21.9531C26.8616 22.6282 26.3142 23.1756 25.6391 23.1756H21.2004C20.5253 23.1756 19.9775 22.6282 19.9775 21.9531V2.21322C19.9775 1.53813 20.5253 0.990723 21.2004 0.990723H25.6391C26.3142 0.990723 26.8616 1.53813 26.8616 2.21322V21.9531Z" fill="#383131"/>
<path d="M18.6489 20.5254V22.8066C18.6489 25.4418 20.7852 27.5778 23.4198 27.5778C26.055 27.5778 28.191 25.4415 28.191 22.8066V20.5254H18.6489Z" fill="#4B4040"/>
<path d="M23.8335 19.2629C23.8335 19.4909 23.6485 19.6762 23.4198 19.6762C23.1918 19.6762 23.0066 19.4912 23.0066 19.2629V3.0905C23.0066 2.86221 23.1916 2.67725 23.4198 2.67725C23.6481 2.67725 23.8335 2.86221 23.8335 3.0905V19.2629Z" fill="#514646"/>
</g>
<defs>
<clipPath id="clip0_24_1636">
<rect width="48" height="48" fill="white" transform="translate(0 0.830444)"/>
</clipPath>
</defs>
</svg>
