<svg width="48" height="49" viewBox="0 0 48 49" fill="none" xmlns="http://www.w3.org/2000/svg">
<g clip-path="url(#clip0_24_1659)">
<path d="M29.2 46.1269H18.801V41.288H29.2V46.1269Z" fill="#2DC9AF"/>
<path d="M45.7126 10.3546V39.9551C45.7126 41.1297 44.7614 42.0822 43.5867 42.0822H4.41442C3.23981 42.0822 2.28735 41.1297 2.28735 39.9551V10.3546H45.7126Z" fill="#2BE0C6"/>
<path d="M5.24194 39.1275V13.309H42.7589V39.1275H5.24194Z" fill="white"/>
<path d="M37.0177 47.4602H10.9836C10.9836 46.8729 11.2223 46.3411 11.6064 45.9559C11.9916 45.5718 12.5234 45.3331 13.1107 45.3331H34.8907C36.0653 45.3331 37.0177 46.2855 37.0177 47.4602Z" fill="#2BE0C6"/>
<path d="M25.3438 27.3765C24.3713 25.402 22.3996 24.1753 20.1984 24.1753H16.9886C16.7995 23.4141 16.3549 22.7299 15.7207 22.2578C15.4721 22.0728 15.3352 21.777 15.3544 21.4664C15.3823 21.018 15.7555 20.6448 16.2038 20.617C16.4599 20.6011 16.7021 20.6883 16.8871 20.8621C17.0724 21.0363 17.1745 21.2721 17.1745 21.5261H18.8288C18.8288 20.821 18.5341 20.1396 18.0202 19.6565C17.4989 19.1667 16.8177 18.9212 16.1013 18.9657C14.814 19.0457 13.7831 20.0766 13.7032 21.3639C13.6492 22.2344 14.0341 23.0647 14.7328 23.5849C14.9433 23.7415 15.1117 23.9451 15.2317 24.1751H12.3285C10.1275 24.1751 8.1558 25.4018 7.18314 27.3764C6.82685 28.0997 6.86845 28.9403 7.29434 29.6248C7.72034 30.3094 8.45595 30.7181 9.26223 30.7181H23.2648C24.0711 30.7181 24.8067 30.3094 25.2327 29.6248C25.6585 28.9403 25.7001 28.0997 25.3438 27.3765ZM23.8279 28.7509C23.7693 28.845 23.5974 29.0639 23.2647 29.0639H9.26211C8.92958 29.0639 8.75752 28.845 8.69891 28.7509C8.64042 28.6569 8.52012 28.4059 8.667 28.1075C9.35913 26.7025 10.7622 25.8297 12.3284 25.8297H20.1983C21.7645 25.8297 23.1676 26.7025 23.8596 28.1076C24.0067 28.4059 23.8864 28.6569 23.8279 28.7509Z" fill="#999999"/>
<path d="M22.024 37.2785H10.5029V28.2389H22.024V37.2785Z" fill="#F9DE58"/>
<path d="M40.3205 31.3889H28.3853V34.5795H40.3205V31.3889Z" fill="#E6E6E6"/>
<path d="M40.3205 26.9207H28.3853V30.1113H40.3205V26.9207Z" fill="#E6E6E6"/>
<path d="M40.3205 22.4606H28.3853V25.6512H40.3205V22.4606Z" fill="#E6E6E6"/>
<path d="M42.7591 21.3882V39.1276H24.988L25.8886 42.0822H43.587C44.7616 42.0822 45.7129 41.1297 45.7129 39.9551V21.3882C45.2286 21.5078 44.7323 21.5677 44.2362 21.5677C43.7399 21.5678 43.2438 21.5079 42.7591 21.3882Z" fill="#6FEAD8"/>
<path d="M20.9562 25.8991L21.6693 28.2389H22.024V29.0639H23.2648C23.5973 29.0639 23.7694 28.8451 23.828 28.751C23.8865 28.6569 24.0068 28.4059 23.8598 28.1076C23.2816 26.9338 22.2073 26.1315 20.9562 25.8991ZM28.3854 34.5795V31.3889H40.3206V34.5795H28.3854ZM28.3854 30.1113V26.9207H40.3206V30.1113H28.3854ZM28.3854 25.6512V22.4606H40.3206V25.6512H28.3854ZM40.1882 20.0446L40.187 20.0457C39.029 21.0602 37.5846 21.5674 36.1404 21.5674C34.6962 21.5674 33.2522 21.0602 32.0947 20.0457L32.0935 20.0446L32.0924 20.0457C30.9343 21.0596 29.4902 21.5666 28.0462 21.5666C26.6022 21.5666 25.1581 21.0596 24 20.0457L23.9989 20.0446C22.8408 21.059 21.3964 21.5662 19.9521 21.5662C19.8458 21.5662 19.7393 21.5635 19.6331 21.558L20.4321 24.1798C22.5384 24.2632 24.4057 25.472 25.3438 27.3764C25.7 28.0998 25.6586 28.9402 25.2327 29.6249C24.8067 30.3094 24.0711 30.7182 23.2648 30.7182H22.425L24.988 39.1274H42.759V21.3882C41.8333 21.1594 40.9498 20.712 40.1895 20.0459L40.1882 20.0446Z" fill="white"/>
<path d="M20.4321 24.1799L20.9561 25.8991C22.2073 26.1314 23.2815 26.9338 23.8597 28.1076C24.0067 28.4059 23.8864 28.6569 23.8279 28.751C23.7693 28.8451 23.5973 29.0639 23.2647 29.0639H22.0239V29.4028L22.4248 30.7183H23.2647C24.0709 30.7183 24.8066 30.3095 25.2326 29.625C25.6584 28.9404 25.7 28.0999 25.3436 27.3766C24.4057 25.4721 22.5384 24.2634 20.4321 24.1799Z" fill="#BABABA"/>
<path d="M22.0239 28.2389H21.6692L22.0239 29.4029V29.064V28.2389Z" fill="#FBE98E"/>
<path d="M40.3205 31.3889H28.3853V34.5795H40.3205V31.3889Z" fill="#EEEEEE"/>
<path d="M40.3205 26.9207H28.3853V30.1113H40.3205V26.9207Z" fill="#EEEEEE"/>
<path d="M40.3205 22.4606H28.3853V25.6512H40.3205V22.4606Z" fill="#EEEEEE"/>
<path d="M34.8906 45.3331H29.1999H23.8535L24.5023 47.4602H37.0177C37.0177 46.2855 36.0652 45.3331 34.8906 45.3331Z" fill="#6FEAD8"/>
<path d="M16.2185 10.3546H2.28735V21.387C2.7715 21.5066 3.26699 21.5664 3.76259 21.5664C4.25962 21.5664 4.75652 21.5064 5.24185 21.3861V13.3089H17.1188L16.2185 10.3546Z" fill="#2EA897"/>
<path d="M17.1189 13.309H5.24194V21.3861C6.16675 21.1571 7.04971 20.7099 7.80955 20.0447H7.81073L7.81191 20.0459C8.96998 21.0598 10.414 21.5667 11.8581 21.5667C12.483 21.5667 13.108 21.4717 13.7097 21.2819C13.8273 20.0332 14.8416 19.0441 16.1015 18.9659C16.1568 18.9625 16.2119 18.9607 16.2668 18.9607C16.922 18.9607 17.5393 19.2046 18.0203 19.6566C18.5189 20.1251 18.8111 20.7805 18.8282 21.463C19.0947 21.5124 19.3634 21.544 19.6333 21.5581L17.1189 13.309Z" fill="#BDBDBD"/>
<path d="M16.2668 18.9607C16.212 18.9607 16.1568 18.9623 16.1015 18.9659C14.8417 19.0441 13.8274 20.0331 13.7097 21.2819C14.4985 21.033 15.2474 20.621 15.9043 20.0458L15.9054 20.0447C16.7617 20.7948 17.7745 21.2676 18.8282 21.4631C18.8111 20.7806 18.5189 20.1253 18.0202 19.6567C17.5394 19.2046 16.9221 18.9607 16.2668 18.9607Z" fill="#787878"/>
<path d="M45.7127 10.3546H16.2185L17.1188 13.3089H42.7589V21.3881C43.2436 21.5079 43.7397 21.5677 44.236 21.5677C44.7321 21.5677 45.2283 21.5078 45.7127 21.3882V10.3546Z" fill="#5CAFA3"/>
<path d="M42.7589 13.309H17.1189L19.6331 21.5582C19.7393 21.5638 19.8458 21.5665 19.9522 21.5665C21.3964 21.5665 22.8408 21.0593 23.9989 20.0448L24.0001 20.046C25.1581 21.0599 26.6022 21.5668 28.0462 21.5668C29.4903 21.5668 30.9343 21.0599 32.0924 20.046L32.0936 20.0448L32.0948 20.046C33.2522 21.0605 34.6963 21.5677 36.1404 21.5677C37.5846 21.5677 39.029 21.0605 40.1871 20.046L40.1882 20.0448L40.1894 20.046C40.9497 20.7122 41.8332 21.1595 42.7589 21.3883V13.309Z" fill="#BDBDBD"/>
<path d="M47.9565 15.197L46.8319 9.05481L46.0224 4.63642C45.7648 3.22547 44.5346 2.20093 43.1001 2.20093H38.3862H31.1932H24.0002H16.8071H9.61409H4.89908C3.46568 2.20093 2.23552 3.22547 1.97673 4.63642L1.16726 9.05481L0.0434584 15.1961C-0.190401 16.4739 0.538829 17.739 1.76733 18.161C3.79466 18.8575 6.10986 18.4612 7.8095 16.9722H7.81069L7.81187 16.9734C10.128 19.0012 13.588 19.0012 15.9042 16.9734L15.9054 16.9722C18.2215 19.0012 21.6827 19.0012 23.9989 16.9722L24 16.9734C26.3162 19.0012 29.7762 19.0012 32.0924 16.9734L32.0935 16.9722L32.0947 16.9734C34.4097 19.0024 37.8709 19.0024 40.187 16.9734L40.1882 16.9722L40.1894 16.9734C41.8892 18.4624 44.2048 18.8587 46.2324 18.1623C47.4613 17.7402 48.1905 16.4749 47.9565 15.197Z" fill="#E6E6E6"/>
<path d="M40.1894 16.9733L40.1882 16.9721L40.1871 16.9733C37.8709 19.0023 34.4097 19.0023 32.0948 16.9733L31.6114 9.05469L31.1931 2.20081H38.3861L39.2228 9.05469L40.1894 16.9733Z" fill="#FC7A51"/>
<path d="M24.0002 2.20081V16.9733L23.999 16.9721C21.6828 19.0011 18.2216 19.0011 15.9055 16.9721H15.9043L16.3888 9.05469L16.8071 2.20081C16.8071 2.20081 24.0002 2.20081 24.0002 2.20081Z" fill="#FC7A51"/>
<path d="M9.61397 2.20081L8.77614 9.05469L7.8095 16.9721C6.10974 18.4612 3.79455 18.8574 1.76733 18.1609C0.538716 17.7388 -0.190396 16.4738 0.0434633 15.196L1.16726 9.05469L1.97673 4.6363C2.23552 3.22534 3.46568 2.20081 4.89909 2.20081C4.89909 2.20081 9.61397 2.20081 9.61397 2.20081Z" fill="#FC7A51"/>
<path d="M22.024 28.2389H10.5029V29.8911H22.024V28.2389Z" fill="#E0BF20"/>
</g>
<defs>
<clipPath id="clip0_24_1659">
<rect width="48" height="48" fill="white" transform="translate(0 0.830444)"/>
</clipPath>
</defs>
</svg>
