<svg width="15" height="16" viewBox="0 0 15 16" fill="none" xmlns="http://www.w3.org/2000/svg">
<path d="M0.75 15.125C0.551088 15.125 0.360322 15.046 0.21967 14.9053C0.0790178 14.7647 0 14.5739 0 14.375V0.875C0 0.676088 0.0790178 0.485322 0.21967 0.34467C0.360322 0.204018 0.551088 0.125 0.75 0.125H11.25C11.4489 0.125 11.6397 0.204018 11.7803 0.34467C11.921 0.485322 12 0.676088 12 0.875V3.125H10.5V1.625H1.5V13.625H10.5V12.125H12V14.375C12 14.5739 11.921 14.7647 11.7803 14.9053C11.6397 15.046 11.4489 15.125 11.25 15.125H0.75ZM10.5 10.625V8.375H5.25V6.875H10.5V4.625L14.25 7.625L10.5 10.625Z" fill="#F43F5E"/>
</svg>
