<svg width="16" height="16" viewBox="0 0 16 16" fill="none" xmlns="http://www.w3.org/2000/svg">
<path d="M1.50498 11.3749C1.18794 10.8266 0.941483 10.2405 0.771484 9.63037C1.14146 9.44219 1.45218 9.15534 1.66926 8.80154C1.88633 8.44774 2.00131 8.04079 2.00146 7.6257C2.00162 7.21062 1.88695 6.80358 1.67014 6.44962C1.45332 6.09566 1.14282 5.80857 0.772984 5.62012C1.11201 4.39423 1.75753 3.27483 2.64873 2.36737C2.9968 2.59366 3.4007 2.71924 3.81572 2.7302C4.23074 2.74117 4.6407 2.63709 5.00023 2.42949C5.35977 2.22189 5.65485 1.91887 5.85283 1.55395C6.05081 1.18903 6.14396 0.776449 6.12198 0.361867C7.35357 0.0435838 8.64591 0.0441001 9.87724 0.363367C9.85545 0.777941 9.94879 1.19046 10.1469 1.55527C10.3451 1.92009 10.6403 2.22297 10.9999 2.43041C11.3595 2.63785 11.7694 2.74176 12.1844 2.73063C12.5994 2.7195 13.0033 2.59378 13.3512 2.36737C13.7855 2.80987 14.171 3.31312 14.495 3.87487C14.8197 4.43662 15.0627 5.02237 15.2285 5.61937C14.8585 5.80754 14.5478 6.0944 14.3307 6.4482C14.1136 6.80199 13.9987 7.20895 13.9985 7.62403C13.9984 8.03912 14.113 8.44616 14.3298 8.80012C14.5466 9.15408 14.8571 9.44116 15.227 9.62962C14.888 10.8555 14.2424 11.9749 13.3512 12.8824C13.0032 12.6561 12.5993 12.5305 12.1843 12.5195C11.7692 12.5086 11.3593 12.6126 10.9997 12.8202C10.6402 13.0278 10.3451 13.3309 10.1471 13.6958C9.94916 14.0607 9.856 14.4733 9.87799 14.8879C8.6464 15.2062 7.35406 15.2056 6.12273 14.8864C6.14452 14.4718 6.05118 14.0593 5.85305 13.6945C5.65492 13.3296 5.35972 13.0268 5.00011 12.8193C4.64051 12.6119 4.23053 12.508 3.81553 12.5191C3.40053 12.5302 2.99671 12.656 2.64873 12.8824C2.20548 12.4301 1.82118 11.9236 1.50498 11.3749ZM5.74998 11.5219C6.5492 11.9828 7.15012 12.7226 7.43748 13.5994C7.81173 13.6346 8.18748 13.6354 8.56173 13.6001C8.84929 12.7233 9.45048 11.9834 10.25 11.5226C11.0489 11.0604 11.9904 10.9095 12.8937 11.0989C13.1112 10.7929 13.2987 10.4666 13.4547 10.1254C12.8393 9.43795 12.4993 8.54752 12.5 7.62487C12.5 6.67987 12.8525 5.79712 13.4547 5.12437C13.2976 4.78323 13.1093 4.45734 12.8922 4.15087C11.9894 4.3401 11.0486 4.18947 10.25 3.72787C9.45076 3.2669 8.84985 2.5271 8.56248 1.65037C8.18823 1.61512 7.81248 1.61437 7.43823 1.64962C7.15068 2.52648 6.54949 3.26629 5.74998 3.72712C4.95107 4.18935 4.00959 4.34026 3.10623 4.15087C2.88916 4.45708 2.70133 4.78301 2.54523 5.12437C3.16066 5.81179 3.50065 6.70221 3.49998 7.62487C3.49998 8.56987 3.14748 9.45262 2.54523 10.1254C2.70234 10.4665 2.89064 10.7924 3.10773 11.0989C4.01052 10.9096 4.95139 11.0603 5.74998 11.5219ZM7.99998 9.87487C7.40325 9.87487 6.83095 9.63781 6.40899 9.21586C5.98704 8.7939 5.74998 8.2216 5.74998 7.62487C5.74998 7.02813 5.98704 6.45583 6.40899 6.03388C6.83095 5.61192 7.40325 5.37487 7.99998 5.37487C8.59672 5.37487 9.16902 5.61192 9.59097 6.03388C10.0129 6.45583 10.25 7.02813 10.25 7.62487C10.25 8.2216 10.0129 8.7939 9.59097 9.21586C9.16902 9.63781 8.59672 9.87487 7.99998 9.87487ZM7.99998 8.37487C8.1989 8.37487 8.38966 8.29585 8.53031 8.1552C8.67097 8.01454 8.74998 7.82378 8.74998 7.62487C8.74998 7.42595 8.67097 7.23519 8.53031 7.09454C8.38966 6.95388 8.1989 6.87487 7.99998 6.87487C7.80107 6.87487 7.61031 6.95388 7.46965 7.09454C7.329 7.23519 7.24998 7.42595 7.24998 7.62487C7.24998 7.82378 7.329 8.01454 7.46965 8.1552C7.61031 8.29585 7.80107 8.37487 7.99998 8.37487Z" fill="#475569"/>
</svg>
