<svg width="683" height="413" viewBox="0 0 683 413" fill="none" xmlns="http://www.w3.org/2000/svg">
<path d="M32.6845 399.245C31.0745 399.245 29.6278 398.965 28.3445 398.405C27.0845 397.822 26.0928 397.028 25.3695 396.025C24.6462 394.998 24.2728 393.82 24.2495 392.49H27.6445C27.7612 393.633 28.2278 394.602 29.0445 395.395C29.8845 396.165 31.0978 396.55 32.6845 396.55C34.2012 396.55 35.3912 396.177 36.2545 395.43C37.1412 394.66 37.5845 393.68 37.5845 392.49C37.5845 391.557 37.3278 390.798 36.8145 390.215C36.3012 389.632 35.6595 389.188 34.8895 388.885C34.1195 388.582 33.0812 388.255 31.7745 387.905C30.1645 387.485 28.8695 387.065 27.8895 386.645C26.9328 386.225 26.1045 385.572 25.4045 384.685C24.7278 383.775 24.3895 382.562 24.3895 381.045C24.3895 379.715 24.7278 378.537 25.4045 377.51C26.0812 376.483 27.0262 375.69 28.2395 375.13C29.4762 374.57 30.8878 374.29 32.4745 374.29C34.7612 374.29 36.6278 374.862 38.0745 376.005C39.5445 377.148 40.3728 378.665 40.5595 380.555H37.0595C36.9428 379.622 36.4528 378.805 35.5895 378.105C34.7262 377.382 33.5828 377.02 32.1595 377.02C30.8295 377.02 29.7445 377.37 28.9045 378.07C28.0645 378.747 27.6445 379.703 27.6445 380.94C27.6445 381.827 27.8895 382.55 28.3795 383.11C28.8928 383.67 29.5112 384.102 30.2345 384.405C30.9812 384.685 32.0195 385.012 33.3495 385.385C34.9595 385.828 36.2545 386.272 37.2345 386.715C38.2145 387.135 39.0545 387.8 39.7545 388.71C40.4545 389.597 40.8045 390.81 40.8045 392.35C40.8045 393.54 40.4895 394.66 39.8595 395.71C39.2295 396.76 38.2962 397.612 37.0595 398.265C35.8228 398.918 34.3645 399.245 32.6845 399.245ZM77.4115 374.78V399H74.2265V380.94L66.1765 399H63.9365L55.8515 380.905V399H52.6665V374.78H56.0965L65.0565 394.8L74.0165 374.78H77.4115ZM104.408 393.575H93.768L91.808 399H88.448L97.268 374.745H100.943L109.728 399H106.368L104.408 393.575ZM103.498 390.985L99.088 378.665L94.678 390.985H103.498ZM133.592 399L127.782 389.025H123.932V399H120.747V374.605H128.622C130.465 374.605 132.017 374.92 133.277 375.55C134.56 376.18 135.517 377.032 136.147 378.105C136.777 379.178 137.092 380.403 137.092 381.78C137.092 383.46 136.602 384.942 135.622 386.225C134.665 387.508 133.219 388.36 131.282 388.78L137.407 399H133.592ZM123.932 386.47H128.622C130.349 386.47 131.644 386.05 132.507 385.21C133.37 384.347 133.802 383.203 133.802 381.78C133.802 380.333 133.37 379.213 132.507 378.42C131.667 377.627 130.372 377.23 128.622 377.23H123.932V386.47ZM164.231 374.605V377.195H157.581V399H154.396V377.195H147.711V374.605H164.231ZM204.117 374.605V392.63C204.117 394.637 203.499 396.247 202.262 397.46C201.026 398.65 199.392 399.245 197.362 399.245C195.309 399.245 193.664 398.638 192.427 397.425C191.191 396.188 190.572 394.508 190.572 392.385H193.757C193.781 393.575 194.084 394.543 194.667 395.29C195.274 396.037 196.172 396.41 197.362 396.41C198.552 396.41 199.439 396.06 200.022 395.36C200.606 394.637 200.897 393.727 200.897 392.63V374.605H204.117ZM220.752 374.605V399H217.567V374.605H220.752ZM264.015 374.605L256.945 399H253.375L247.705 379.365L241.825 399L238.29 399.035L231.465 374.605H234.86L240.18 395.29L246.06 374.605H249.63L255.23 395.22L260.585 374.605H264.015ZM289.096 393.575H278.456L276.496 399H273.136L281.956 374.745H285.631L294.416 399H291.056L289.096 393.575ZM288.186 390.985L283.776 378.665L279.366 390.985H288.186ZM324.615 399H321.43L308.62 379.575V399H305.435V374.57H308.62L321.43 393.96V374.57H324.615V399ZM357.015 394.59L353.095 404.005H350.96L353.515 394.59H357.015ZM392.08 399.245C390.47 399.245 389.023 398.965 387.74 398.405C386.48 397.822 385.488 397.028 384.765 396.025C384.041 394.998 383.668 393.82 383.645 392.49H387.04C387.156 393.633 387.623 394.602 388.44 395.395C389.28 396.165 390.493 396.55 392.08 396.55C393.596 396.55 394.786 396.177 395.65 395.43C396.536 394.66 396.98 393.68 396.98 392.49C396.98 391.557 396.723 390.798 396.21 390.215C395.696 389.632 395.055 389.188 394.285 388.885C393.515 388.582 392.476 388.255 391.17 387.905C389.56 387.485 388.265 387.065 387.285 386.645C386.328 386.225 385.5 385.572 384.8 384.685C384.123 383.775 383.785 382.562 383.785 381.045C383.785 379.715 384.123 378.537 384.8 377.51C385.476 376.483 386.421 375.69 387.635 375.13C388.871 374.57 390.283 374.29 391.87 374.29C394.156 374.29 396.023 374.862 397.47 376.005C398.94 377.148 399.768 378.665 399.955 380.555H396.455C396.338 379.622 395.848 378.805 394.985 378.105C394.121 377.382 392.978 377.02 391.555 377.02C390.225 377.02 389.14 377.37 388.3 378.07C387.46 378.747 387.04 379.703 387.04 380.94C387.04 381.827 387.285 382.55 387.775 383.11C388.288 383.67 388.906 384.102 389.63 384.405C390.376 384.685 391.415 385.012 392.745 385.385C394.355 385.828 395.65 386.272 396.63 386.715C397.61 387.135 398.45 387.8 399.15 388.71C399.85 389.597 400.2 390.81 400.2 392.35C400.2 393.54 399.885 394.66 399.255 395.71C398.625 396.76 397.691 397.612 396.455 398.265C395.218 398.918 393.76 399.245 392.08 399.245ZM426.482 393.575H415.842L413.882 399H410.522L419.342 374.745H423.017L431.802 399H428.442L426.482 393.575ZM425.572 390.985L421.162 378.665L416.752 390.985H425.572ZM461.616 374.605V399H458.431V387.94H446.006V399H442.821V374.605H446.006V385.315H458.431V374.605H461.616ZM488.649 393.575H478.009L476.049 399H472.689L481.509 374.745H485.184L493.969 399H490.609L488.649 393.575ZM487.739 390.985L483.329 378.665L478.919 390.985H487.739ZM517.273 374.605V392.63C517.273 394.637 516.655 396.247 515.418 397.46C514.181 398.65 512.548 399.245 510.518 399.245C508.465 399.245 506.82 398.638 505.583 397.425C504.346 396.188 503.728 394.508 503.728 392.385H506.913C506.936 393.575 507.24 394.543 507.823 395.29C508.43 396.037 509.328 396.41 510.518 396.41C511.708 396.41 512.595 396.06 513.178 395.36C513.761 394.637 514.053 393.727 514.053 392.63V374.605H517.273ZM559.514 374.605V392.63C559.514 394.637 558.895 396.247 557.659 397.46C556.422 398.65 554.789 399.245 552.759 399.245C550.705 399.245 549.06 398.638 547.824 397.425C546.587 396.188 545.969 394.508 545.969 392.385H549.154C549.177 393.575 549.48 394.543 550.064 395.29C550.67 396.037 551.569 396.41 552.759 396.41C553.949 396.41 554.835 396.06 555.419 395.36C556.002 394.637 556.294 393.727 556.294 392.63V374.605H559.514ZM576.148 374.605V399H572.963V374.605H576.148ZM619.412 374.605L612.342 399H608.772L603.102 379.365L597.222 399L593.687 399.035L586.862 374.605H590.257L595.577 395.29L601.457 374.605H605.027L610.627 395.22L615.982 374.605H619.412ZM644.492 393.575H633.852L631.892 399H628.532L637.352 374.745H641.027L649.812 399H646.452L644.492 393.575ZM643.582 390.985L639.172 378.665L634.762 390.985H643.582ZM680.011 399H676.826L664.016 379.575V399H660.831V374.57H664.016L676.826 393.96V374.57H680.011V399Z" fill="#F5F5F5"/>
<path d="M28.3445 398.405L27.9244 399.312L27.9344 399.317L27.9445 399.322L28.3445 398.405ZM25.3695 396.025L24.552 396.601L24.5583 396.61L25.3695 396.025ZM24.2495 392.49V391.49H23.2318L23.2496 392.508L24.2495 392.49ZM27.6445 392.49L28.6393 392.388L28.5476 391.49H27.6445V392.49ZM29.0445 395.395L28.3477 396.112L28.3581 396.122L28.3688 396.132L29.0445 395.395ZM36.2545 395.43L36.9086 396.186L36.9102 396.185L36.2545 395.43ZM36.8145 390.215L36.0638 390.876L36.0638 390.876L36.8145 390.215ZM34.8895 388.885L34.523 389.815L34.523 389.815L34.8895 388.885ZM31.7745 387.905L32.0332 386.939L32.0269 386.937L31.7745 387.905ZM27.8895 386.645L27.4875 387.561L27.4956 387.564L27.8895 386.645ZM25.4045 384.685L24.602 385.282L24.6106 385.293L24.6196 385.305L25.4045 384.685ZM25.4045 377.51L26.2394 378.06L26.2394 378.06L25.4045 377.51ZM28.2395 375.13L27.827 374.219L27.8204 374.222L28.2395 375.13ZM38.0745 376.005L37.4544 376.79L37.4605 376.794L38.0745 376.005ZM40.5595 380.555V381.555H41.6631L41.5546 380.457L40.5595 380.555ZM37.0595 380.555L36.0672 380.679L36.1767 381.555H37.0595V380.555ZM35.5895 378.105L34.9473 378.872L34.9534 378.877L34.9597 378.882L35.5895 378.105ZM28.9045 378.07L29.5318 378.849L29.5383 378.844L29.5447 378.838L28.9045 378.07ZM28.3795 383.11L27.6269 383.769L27.6345 383.777L27.6423 383.786L28.3795 383.11ZM30.2345 384.405L29.8478 385.327L29.8654 385.335L29.8834 385.341L30.2345 384.405ZM33.3495 385.385L33.0792 386.348L33.084 386.349L33.3495 385.385ZM37.2345 386.715L36.8223 387.626L36.8314 387.63L36.8406 387.634L37.2345 386.715ZM39.7545 388.71L38.9618 389.32L38.9696 389.33L39.7545 388.71ZM39.8595 395.71L40.717 396.224L40.717 396.224L39.8595 395.71ZM37.0595 398.265L36.5924 397.381L37.0595 398.265ZM32.6845 398.245C31.1916 398.245 29.8841 397.986 28.7444 397.488L27.9445 399.322C29.3715 399.944 30.9573 400.245 32.6845 400.245V398.245ZM28.7646 397.498C27.641 396.977 26.7917 396.288 26.1807 395.44L24.5583 396.61C25.394 397.769 26.5279 398.666 27.9244 399.312L28.7646 397.498ZM26.187 395.449C25.5859 394.596 25.2694 393.615 25.2493 392.472L23.2496 392.508C23.2763 394.025 23.7064 395.401 24.552 396.601L26.187 395.449ZM24.2495 393.49H27.6445V391.49H24.2495V393.49ZM26.6497 392.592C26.7899 393.966 27.3607 395.153 28.3477 396.112L29.7413 394.678C29.095 394.05 28.7324 393.3 28.6393 392.388L26.6497 392.592ZM28.3688 396.132C29.4548 397.128 30.9462 397.55 32.6845 397.55V395.55C31.2495 395.55 30.3141 395.202 29.7202 394.658L28.3688 396.132ZM32.6845 397.55C34.3614 397.55 35.8111 397.136 36.9086 396.186L35.6003 394.674C34.9712 395.218 34.0409 395.55 32.6845 395.55V397.55ZM36.9102 396.185C38.0189 395.222 38.5845 393.965 38.5845 392.49H36.5845C36.5845 393.395 36.2634 394.098 35.5988 394.675L36.9102 396.185ZM38.5845 392.49C38.5845 391.365 38.2702 390.355 37.5652 389.554L36.0638 390.876C36.3855 391.241 36.5845 391.749 36.5845 392.49H38.5845ZM37.5652 389.554C36.9402 388.844 36.1638 388.312 35.256 387.955L34.523 389.815C35.1552 390.064 35.6621 390.419 36.0638 390.876L37.5652 389.554ZM35.256 387.955C34.4358 387.631 33.3567 387.294 32.0332 386.939L31.5158 388.871C32.8056 389.216 33.8032 389.532 34.523 389.815L35.256 387.955ZM32.0269 386.937C30.4417 386.524 29.1995 386.118 28.2834 385.726L27.4956 387.564C28.5394 388.012 29.8873 388.446 31.5221 388.873L32.0269 386.937ZM28.2915 385.729C27.4968 385.38 26.7963 384.834 26.1894 384.065L24.6196 385.305C25.4126 386.309 26.3689 387.07 27.4875 387.561L28.2915 385.729ZM26.2069 384.088C25.6957 383.401 25.3895 382.419 25.3895 381.045H23.3895C23.3895 382.705 23.76 384.149 24.602 385.282L26.2069 384.088ZM25.3895 381.045C25.3895 379.894 25.6793 378.91 26.2394 378.06L24.5695 376.96C23.7764 378.163 23.3895 379.536 23.3895 381.045H25.3895ZM26.2394 378.06C26.8047 377.203 27.5992 376.527 28.6585 376.038L27.8204 374.222C26.4531 374.853 25.3576 375.764 24.5695 376.96L26.2394 378.06ZM28.652 376.041C29.739 375.549 31.0063 375.29 32.4745 375.29V373.29C30.7694 373.29 29.2133 373.591 27.827 374.219L28.652 376.041ZM32.4745 375.29C34.5915 375.29 36.2233 375.817 37.4544 376.79L38.6945 375.22C37.0323 373.907 34.9308 373.29 32.4745 373.29V375.29ZM37.4605 376.794C38.7093 377.766 39.404 379.03 39.5643 380.653L41.5546 380.457C41.3416 378.3 40.3797 376.531 38.6884 375.216L37.4605 376.794ZM40.5595 379.555H37.0595V381.555H40.5595V379.555ZM38.0518 380.431C37.8974 379.196 37.2442 378.159 36.2193 377.328L34.9597 378.882C35.6614 379.451 35.9883 380.048 36.0672 380.679L38.0518 380.431ZM36.2317 377.338C35.145 376.428 33.7541 376.02 32.1595 376.02V378.02C33.4115 378.02 34.3073 378.335 34.9473 378.872L36.2317 377.338ZM32.1595 376.02C30.6481 376.02 29.3206 376.422 28.2643 377.302L29.5447 378.838C30.1684 378.318 31.0109 378.02 32.1595 378.02V376.02ZM28.2772 377.291C27.1652 378.187 26.6445 379.451 26.6445 380.94H28.6445C28.6445 379.956 28.9638 379.306 29.5318 378.849L28.2772 377.291ZM26.6445 380.94C26.6445 382.02 26.948 382.993 27.6269 383.769L29.1321 382.451C28.831 382.107 28.6445 381.633 28.6445 380.94H26.6445ZM27.6423 383.786C28.2565 384.456 28.9956 384.97 29.8478 385.327L30.6212 383.483C30.0267 383.233 29.5291 382.884 29.1166 382.434L27.6423 383.786ZM29.8834 385.341C30.6689 385.636 31.7385 385.971 33.0792 386.348L33.6197 384.422C32.3004 384.052 31.2934 383.734 30.5856 383.469L29.8834 385.341ZM33.084 386.349C34.668 386.785 35.9082 387.213 36.8223 387.626L37.6467 385.804C36.6008 385.331 35.251 384.871 33.615 384.421L33.084 386.349ZM36.8406 387.634C37.6514 387.982 38.3579 388.535 38.9619 389.32L40.5471 388.1C39.7511 387.065 38.7776 386.288 37.6284 385.796L36.8406 387.634ZM38.9696 389.33C39.4873 389.985 39.8045 390.954 39.8045 392.35H41.8045C41.8045 390.666 41.4217 389.208 40.5394 388.09L38.9696 389.33ZM39.8045 392.35C39.8045 393.353 39.5416 394.296 39.002 395.196L40.717 396.224C41.4374 395.024 41.8045 393.727 41.8045 392.35H39.8045ZM39.002 395.196C38.4787 396.068 37.691 396.8 36.5924 397.381L37.5266 399.149C38.9013 398.423 39.9803 397.452 40.717 396.224L39.002 395.196ZM36.5924 397.381C35.5259 397.944 34.2342 398.245 32.6845 398.245V400.245C34.4948 400.245 36.1197 399.892 37.5266 399.149L36.5924 397.381ZM77.4115 374.78H78.4115V373.78H77.4115V374.78ZM77.4115 399V400H78.4115V399H77.4115ZM74.2265 399H73.2265V400H74.2265V399ZM74.2265 380.94H75.2265L73.3131 380.533L74.2265 380.94ZM66.1765 399V400H66.8256L67.0899 399.407L66.1765 399ZM63.9365 399L63.0235 399.408L63.288 400H63.9365V399ZM55.8515 380.905L56.7645 380.497L54.8515 380.905H55.8515ZM55.8515 399V400H56.8515V399H55.8515ZM52.6665 399H51.6665V400H52.6665V399ZM52.6665 374.78V373.78H51.6665V374.78H52.6665ZM56.0965 374.78L57.0092 374.371L56.7445 373.78H56.0965V374.78ZM65.0565 394.8L64.1437 395.209L65.0565 397.248L65.9692 395.209L65.0565 394.8ZM74.0165 374.78V373.78H73.3684L73.1037 374.371L74.0165 374.78ZM76.4115 374.78V399H78.4115V374.78H76.4115ZM77.4115 398H74.2265V400H77.4115V398ZM75.2265 399V380.94H73.2265V399H75.2265ZM73.3131 380.533L65.2631 398.593L67.0899 399.407L75.1399 381.347L73.3131 380.533ZM66.1765 398H63.9365V400H66.1765V398ZM64.8495 398.592L56.7645 380.497L54.9385 381.313L63.0235 399.408L64.8495 398.592ZM54.8515 380.905V399H56.8515V380.905H54.8515ZM55.8515 398H52.6665V400H55.8515V398ZM53.6665 399V374.78H51.6665V399H53.6665ZM52.6665 375.78H56.0965V373.78H52.6665V375.78ZM55.1837 375.189L64.1437 395.209L65.9692 394.391L57.0092 374.371L55.1837 375.189ZM65.9692 395.209L74.9292 375.189L73.1037 374.371L64.1437 394.391L65.9692 395.209ZM74.0165 375.78H77.4115V373.78H74.0165V375.78ZM104.408 393.575L105.348 393.235L105.11 392.575H104.408V393.575ZM93.768 393.575V392.575H93.066L92.8275 393.235L93.768 393.575ZM91.808 399V400H92.5099L92.7485 399.34L91.808 399ZM88.448 399L87.5082 398.658L87.0203 400H88.448V399ZM97.268 374.745V373.745H96.5675L96.3282 374.403L97.268 374.745ZM100.943 374.745L101.883 374.404L101.644 373.745H100.943V374.745ZM109.728 399V400H111.154L110.668 398.659L109.728 399ZM106.368 399L105.427 399.34L105.666 400H106.368V399ZM103.498 390.985V391.985H104.918L104.439 390.648L103.498 390.985ZM99.088 378.665L100.029 378.328L99.088 375.698L98.1465 378.328L99.088 378.665ZM94.678 390.985L93.7365 390.648L93.2579 391.985H94.678V390.985ZM104.408 392.575H93.768V394.575H104.408V392.575ZM92.8275 393.235L90.8675 398.66L92.7485 399.34L94.7085 393.915L92.8275 393.235ZM91.808 398H88.448V400H91.808V398ZM89.3878 399.342L98.2078 375.087L96.3282 374.403L87.5082 398.658L89.3878 399.342ZM97.268 375.745H100.943V373.745H97.268V375.745ZM100.003 375.086L108.788 399.341L110.668 398.659L101.883 374.404L100.003 375.086ZM109.728 398H106.368V400H109.728V398ZM107.308 398.66L105.348 393.235L103.467 393.915L105.427 399.34L107.308 398.66ZM104.439 390.648L100.029 378.328L98.1465 379.002L102.556 391.322L104.439 390.648ZM98.1465 378.328L93.7365 390.648L95.6195 391.322L100.029 379.002L98.1465 378.328ZM94.678 391.985H103.498V389.985H94.678V391.985ZM133.592 399L132.728 399.503L133.017 400H133.592V399ZM127.782 389.025L128.646 388.522L128.357 388.025H127.782V389.025ZM123.932 389.025V388.025H122.932V389.025H123.932ZM123.932 399V400H124.932V399H123.932ZM120.747 399H119.747V400H120.747V399ZM120.747 374.605V373.605H119.747V374.605H120.747ZM133.277 375.55L132.83 376.444L132.836 376.448L133.277 375.55ZM135.622 386.225L134.827 385.618L134.82 385.627L135.622 386.225ZM131.282 388.78L131.07 387.803L129.707 388.098L130.424 389.294L131.282 388.78ZM137.407 399V400H139.172L138.265 398.486L137.407 399ZM123.932 386.47H122.932V387.47H123.932V386.47ZM132.507 385.21L133.204 385.927L133.214 385.917L132.507 385.21ZM132.507 378.42L131.82 379.147L131.83 379.156L132.507 378.42ZM123.932 377.23V376.23H122.932V377.23H123.932ZM134.456 398.497L128.646 388.522L126.918 389.528L132.728 399.503L134.456 398.497ZM127.782 388.025H123.932V390.025H127.782V388.025ZM122.932 389.025V399H124.932V389.025H122.932ZM123.932 398H120.747V400H123.932V398ZM121.747 399V374.605H119.747V399H121.747ZM120.747 375.605H128.622V373.605H120.747V375.605ZM128.622 375.605C130.356 375.605 131.745 375.902 132.83 376.444L133.724 374.656C132.289 373.938 130.574 373.605 128.622 373.605V375.605ZM132.836 376.448C133.971 377.005 134.768 377.731 135.285 378.611L137.009 377.599C136.266 376.332 135.15 375.355 133.718 374.652L132.836 376.448ZM135.285 378.611C135.815 379.515 136.092 380.562 136.092 381.78H138.092C138.092 380.245 137.739 378.842 137.009 377.599L135.285 378.611ZM136.092 381.78C136.092 383.25 135.668 384.516 134.827 385.618L136.417 386.832C137.536 385.367 138.092 383.67 138.092 381.78H136.092ZM134.82 385.627C134.04 386.674 132.829 387.421 131.07 387.803L131.494 389.757C133.608 389.299 135.291 388.343 136.424 386.823L134.82 385.627ZM130.424 389.294L136.549 399.514L138.265 398.486L132.14 388.266L130.424 389.294ZM137.407 398H133.592V400H137.407V398ZM123.932 387.47H128.622V385.47H123.932V387.47ZM128.622 387.47C130.496 387.47 132.086 387.014 133.204 385.927L131.81 384.493C131.201 385.086 130.201 385.47 128.622 385.47V387.47ZM133.214 385.917C134.296 384.835 134.802 383.421 134.802 381.78H132.802C132.802 382.986 132.445 383.858 131.8 384.503L133.214 385.917ZM134.802 381.78C134.802 380.124 134.3 378.709 133.184 377.684L131.83 379.156C132.441 379.717 132.802 380.543 132.802 381.78H134.802ZM133.194 377.693C132.092 376.653 130.499 376.23 128.622 376.23V378.23C130.245 378.23 131.242 378.601 131.82 379.147L133.194 377.693ZM128.622 376.23H123.932V378.23H128.622V376.23ZM122.932 377.23V386.47H124.932V377.23H122.932ZM164.231 374.605H165.231V373.605H164.231V374.605ZM164.231 377.195V378.195H165.231V377.195H164.231ZM157.581 377.195V376.195H156.581V377.195H157.581ZM157.581 399V400H158.581V399H157.581ZM154.396 399H153.396V400H154.396V399ZM154.396 377.195H155.396V376.195H154.396V377.195ZM147.711 377.195H146.711V378.195H147.711V377.195ZM147.711 374.605V373.605H146.711V374.605H147.711ZM163.231 374.605V377.195H165.231V374.605H163.231ZM164.231 376.195H157.581V378.195H164.231V376.195ZM156.581 377.195V399H158.581V377.195H156.581ZM157.581 398H154.396V400H157.581V398ZM155.396 399V377.195H153.396V399H155.396ZM154.396 376.195H147.711V378.195H154.396V376.195ZM148.711 377.195V374.605H146.711V377.195H148.711ZM147.711 375.605H164.231V373.605H147.711V375.605ZM204.117 374.605H205.117V373.605H204.117V374.605ZM202.262 397.46L202.956 398.181L202.963 398.174L202.262 397.46ZM192.427 397.425L191.72 398.132L191.727 398.139L192.427 397.425ZM190.572 392.385V391.385H189.572V392.385H190.572ZM193.757 392.385L194.757 392.365L194.738 391.385H193.757V392.385ZM194.667 395.29L193.879 395.906L193.885 395.913L193.891 395.921L194.667 395.29ZM200.022 395.36L200.791 396L200.796 395.994L200.801 395.988L200.022 395.36ZM200.897 374.605V373.605H199.897V374.605H200.897ZM203.117 374.605V392.63H205.117V374.605H203.117ZM203.117 392.63C203.117 394.414 202.577 395.751 201.562 396.746L202.963 398.174C204.422 396.742 205.117 394.859 205.117 392.63H203.117ZM201.569 396.739C200.552 397.718 199.184 398.245 197.362 398.245V400.245C199.601 400.245 201.499 399.582 202.956 398.181L201.569 396.739ZM197.362 398.245C195.519 398.245 194.143 397.708 193.128 396.711L191.727 398.139C193.185 399.569 195.099 400.245 197.362 400.245V398.245ZM193.135 396.718C192.124 395.708 191.572 394.304 191.572 392.385H189.572C189.572 394.713 190.257 396.669 191.72 398.132L193.135 396.718ZM190.572 393.385H193.757V391.385H190.572V393.385ZM192.758 392.405C192.784 393.755 193.132 394.949 193.879 395.906L195.456 394.674C195.036 394.138 194.777 393.395 194.757 392.365L192.758 392.405ZM193.891 395.921C194.732 396.956 195.95 397.41 197.362 397.41V395.41C196.395 395.41 195.816 395.118 195.444 394.659L193.891 395.921ZM197.362 397.41C198.752 397.41 199.963 396.994 200.791 396L199.254 394.72C198.916 395.126 198.353 395.41 197.362 395.41V397.41ZM200.801 395.988C201.552 395.056 201.897 393.912 201.897 392.63H199.897C199.897 393.541 199.659 394.217 199.244 394.732L200.801 395.988ZM201.897 392.63V374.605H199.897V392.63H201.897ZM200.897 375.605H204.117V373.605H200.897V375.605ZM220.752 374.605H221.752V373.605H220.752V374.605ZM220.752 399V400H221.752V399H220.752ZM217.567 399H216.567V400H217.567V399ZM217.567 374.605V373.605H216.567V374.605H217.567ZM219.752 374.605V399H221.752V374.605H219.752ZM220.752 398H217.567V400H220.752V398ZM218.567 399V374.605H216.567V399H218.567ZM217.567 375.605H220.752V373.605H217.567V375.605ZM264.015 374.605L264.976 374.883L265.346 373.605H264.015V374.605ZM256.945 399V400H257.697L257.906 399.278L256.945 399ZM253.375 399L252.415 399.277L252.623 400H253.375V399ZM247.705 379.365L248.666 379.088L247.723 375.821L246.747 379.078L247.705 379.365ZM241.825 399L241.835 400L242.572 399.993L242.783 399.287L241.825 399ZM238.29 399.035L237.327 399.304L237.534 400.043L238.3 400.035L238.29 399.035ZM231.465 374.605V373.605H230.148L230.502 374.874L231.465 374.605ZM234.86 374.605L235.829 374.356L235.636 373.605H234.86V374.605ZM240.18 395.29L239.212 395.539L240.132 399.117L241.142 395.563L240.18 395.29ZM246.06 374.605V373.605H245.305L245.098 374.332L246.06 374.605ZM249.63 374.605L250.595 374.343L250.395 373.605H249.63V374.605ZM255.23 395.22L254.265 395.482L255.252 399.114L256.198 395.471L255.23 395.22ZM260.585 374.605V373.605H259.812L259.617 374.354L260.585 374.605ZM263.055 374.327L255.985 398.722L257.906 399.278L264.976 374.883L263.055 374.327ZM256.945 398H253.375V400H256.945V398ZM254.336 398.723L248.666 379.088L246.745 379.642L252.415 399.277L254.336 398.723ZM246.747 379.078L240.867 398.713L242.783 399.287L248.663 379.652L246.747 379.078ZM241.815 398L238.28 398.035L238.3 400.035L241.835 400L241.815 398ZM239.253 398.766L232.428 374.336L230.502 374.874L237.327 399.304L239.253 398.766ZM231.465 375.605H234.86V373.605H231.465V375.605ZM233.892 374.854L239.212 395.539L241.149 395.041L235.829 374.356L233.892 374.854ZM241.142 395.563L247.022 374.878L245.098 374.332L239.218 395.017L241.142 395.563ZM246.06 375.605H249.63V373.605H246.06V375.605ZM248.665 374.867L254.265 395.482L256.195 394.958L250.595 374.343L248.665 374.867ZM256.198 395.471L261.553 374.856L259.617 374.354L254.262 394.969L256.198 395.471ZM260.585 375.605H264.015V373.605H260.585V375.605ZM289.096 393.575L290.036 393.235L289.798 392.575H289.096V393.575ZM278.456 393.575V392.575H277.754L277.515 393.235L278.456 393.575ZM276.496 399V400H277.198L277.436 399.34L276.496 399ZM273.136 399L272.196 398.658L271.708 400H273.136V399ZM281.956 374.745V373.745H281.255L281.016 374.403L281.956 374.745ZM285.631 374.745L286.571 374.404L286.332 373.745H285.631V374.745ZM294.416 399V400H295.842L295.356 398.659L294.416 399ZM291.056 399L290.115 399.34L290.354 400H291.056V399ZM288.186 390.985V391.985H289.606L289.127 390.648L288.186 390.985ZM283.776 378.665L284.717 378.328L283.776 375.698L282.834 378.328L283.776 378.665ZM279.366 390.985L278.424 390.648L277.946 391.985H279.366V390.985ZM289.096 392.575H278.456V394.575H289.096V392.575ZM277.515 393.235L275.555 398.66L277.436 399.34L279.396 393.915L277.515 393.235ZM276.496 398H273.136V400H276.496V398ZM274.076 399.342L282.896 375.087L281.016 374.403L272.196 398.658L274.076 399.342ZM281.956 375.745H285.631V373.745H281.956V375.745ZM284.691 375.086L293.476 399.341L295.356 398.659L286.571 374.404L284.691 375.086ZM294.416 398H291.056V400H294.416V398ZM291.996 398.66L290.036 393.235L288.155 393.915L290.115 399.34L291.996 398.66ZM289.127 390.648L284.717 378.328L282.834 379.002L287.244 391.322L289.127 390.648ZM282.834 378.328L278.424 390.648L280.307 391.322L284.717 379.002L282.834 378.328ZM279.366 391.985H288.186V389.985H279.366V391.985ZM324.615 399V400H325.615V399H324.615ZM321.43 399L320.595 399.551L320.891 400H321.43V399ZM308.62 379.575L309.455 379.024L307.62 376.242V379.575H308.62ZM308.62 399V400H309.62V399H308.62ZM305.435 399H304.435V400H305.435V399ZM305.435 374.57V373.57H304.435V374.57H305.435ZM308.62 374.57L309.454 374.019L309.158 373.57H308.62V374.57ZM321.43 393.96L320.595 394.511L322.43 397.288V393.96H321.43ZM321.43 374.57V373.57H320.43V374.57H321.43ZM324.615 374.57H325.615V373.57H324.615V374.57ZM324.615 398H321.43V400H324.615V398ZM322.265 398.449L309.455 379.024L307.785 380.126L320.595 399.551L322.265 398.449ZM307.62 379.575V399H309.62V379.575H307.62ZM308.62 398H305.435V400H308.62V398ZM306.435 399V374.57H304.435V399H306.435ZM305.435 375.57H308.62V373.57H305.435V375.57ZM307.785 375.121L320.595 394.511L322.264 393.409L309.454 374.019L307.785 375.121ZM322.43 393.96V374.57H320.43V393.96H322.43ZM321.43 375.57H324.615V373.57H321.43V375.57ZM323.615 374.57V399H325.615V374.57H323.615ZM357.015 394.59L357.938 394.974L358.515 393.59H357.015V394.59ZM353.095 404.005V405.005H353.762L354.018 404.389L353.095 404.005ZM350.96 404.005L349.995 403.743L349.653 405.005H350.96V404.005ZM353.515 394.59V393.59H352.75L352.55 394.328L353.515 394.59ZM356.092 394.206L352.172 403.621L354.018 404.389L357.938 394.974L356.092 394.206ZM353.095 403.005H350.96V405.005H353.095V403.005ZM351.925 404.267L354.48 394.852L352.55 394.328L349.995 403.743L351.925 404.267ZM353.515 395.59H357.015V393.59H353.515V395.59ZM387.74 398.405L387.32 399.312L387.33 399.317L387.34 399.322L387.74 398.405ZM384.765 396.025L383.947 396.601L383.954 396.61L384.765 396.025ZM383.645 392.49V391.49H382.627L382.645 392.508L383.645 392.49ZM387.04 392.49L388.035 392.388L387.943 391.49H387.04V392.49ZM388.44 395.395L387.743 396.112L387.753 396.122L387.764 396.132L388.44 395.395ZM395.65 395.43L396.304 396.186L396.305 396.185L395.65 395.43ZM396.21 390.215L395.459 390.876L395.459 390.876L396.21 390.215ZM394.285 388.885L393.918 389.815L393.918 389.815L394.285 388.885ZM391.17 387.905L391.429 386.939L391.422 386.937L391.17 387.905ZM387.285 386.645L386.883 387.561L386.891 387.564L387.285 386.645ZM384.8 384.685L383.997 385.282L384.006 385.293L384.015 385.305L384.8 384.685ZM384.8 377.51L385.635 378.06L385.635 378.06L384.8 377.51ZM387.635 375.13L387.222 374.219L387.216 374.222L387.635 375.13ZM397.47 376.005L396.85 376.79L396.856 376.794L397.47 376.005ZM399.955 380.555V381.555H401.058L400.95 380.457L399.955 380.555ZM396.455 380.555L395.463 380.679L395.572 381.555H396.455V380.555ZM394.985 378.105L394.343 378.872L394.349 378.877L394.355 378.882L394.985 378.105ZM388.3 378.07L388.927 378.849L388.934 378.844L388.94 378.838L388.3 378.07ZM387.775 383.11L387.022 383.769L387.03 383.777L387.038 383.786L387.775 383.11ZM389.63 384.405L389.243 385.327L389.261 385.335L389.279 385.341L389.63 384.405ZM392.745 385.385L392.475 386.348L392.479 386.349L392.745 385.385ZM396.63 386.715L396.218 387.626L396.227 387.63L396.236 387.634L396.63 386.715ZM399.15 388.71L398.357 389.32L398.365 389.33L399.15 388.71ZM399.255 395.71L400.112 396.224L400.112 396.224L399.255 395.71ZM396.455 398.265L395.988 397.381L396.455 398.265ZM392.08 398.245C390.587 398.245 389.279 397.986 388.14 397.488L387.34 399.322C388.767 399.944 390.353 400.245 392.08 400.245V398.245ZM388.16 397.498C387.036 396.977 386.187 396.288 385.576 395.44L383.954 396.61C384.789 397.769 385.923 398.666 387.32 399.312L388.16 397.498ZM385.582 395.449C384.981 394.596 384.665 393.615 384.645 392.472L382.645 392.508C382.672 394.025 383.102 395.401 383.947 396.601L385.582 395.449ZM383.645 393.49H387.04V391.49H383.645V393.49ZM386.045 392.592C386.185 393.966 386.756 395.153 387.743 396.112L389.137 394.678C388.49 394.05 388.128 393.3 388.035 392.388L386.045 392.592ZM387.764 396.132C388.85 397.128 390.342 397.55 392.08 397.55V395.55C390.645 395.55 389.709 395.202 389.116 394.658L387.764 396.132ZM392.08 397.55C393.757 397.55 395.206 397.136 396.304 396.186L394.996 394.674C394.367 395.218 393.436 395.55 392.08 395.55V397.55ZM396.305 396.185C397.414 395.222 397.98 393.965 397.98 392.49H395.98C395.98 393.395 395.659 394.098 394.994 394.675L396.305 396.185ZM397.98 392.49C397.98 391.365 397.665 390.355 396.961 389.554L395.459 390.876C395.781 391.241 395.98 391.749 395.98 392.49H397.98ZM396.961 389.554C396.336 388.844 395.559 388.312 394.651 387.955L393.918 389.815C394.55 390.064 395.057 390.419 395.459 390.876L396.961 389.554ZM394.651 387.955C393.831 387.631 392.752 387.294 391.429 386.939L390.911 388.871C392.201 389.216 393.198 389.532 393.918 389.815L394.651 387.955ZM391.422 386.937C389.837 386.524 388.595 386.118 387.679 385.726L386.891 387.564C387.935 388.012 389.283 388.446 390.917 388.873L391.422 386.937ZM387.687 385.729C386.892 385.38 386.192 384.834 385.585 384.065L384.015 385.305C384.808 386.309 385.764 387.07 386.883 387.561L387.687 385.729ZM385.602 384.088C385.091 383.401 384.785 382.419 384.785 381.045H382.785C382.785 382.705 383.155 384.149 383.997 385.282L385.602 384.088ZM384.785 381.045C384.785 379.894 385.075 378.91 385.635 378.06L383.965 376.96C383.172 378.163 382.785 379.536 382.785 381.045H384.785ZM385.635 378.06C386.2 377.203 386.995 376.527 388.054 376.038L387.216 374.222C385.848 374.853 384.753 375.764 383.965 376.96L385.635 378.06ZM388.047 376.041C389.134 375.549 390.402 375.29 391.87 375.29V373.29C390.165 373.29 388.609 373.591 387.222 374.219L388.047 376.041ZM391.87 375.29C393.987 375.29 395.619 375.817 396.85 376.79L398.09 375.22C396.428 373.907 394.326 373.29 391.87 373.29V375.29ZM396.856 376.794C398.105 377.766 398.799 379.03 398.96 380.653L400.95 380.457C400.737 378.3 399.775 376.531 398.084 375.216L396.856 376.794ZM399.955 379.555H396.455V381.555H399.955V379.555ZM397.447 380.431C397.293 379.196 396.64 378.159 395.615 377.328L394.355 378.882C395.057 379.451 395.384 380.048 395.463 380.679L397.447 380.431ZM395.627 377.338C394.54 376.428 393.149 376.02 391.555 376.02V378.02C392.807 378.02 393.703 378.335 394.343 378.872L395.627 377.338ZM391.555 376.02C390.043 376.02 388.716 376.422 387.66 377.302L388.94 378.838C389.564 378.318 390.406 378.02 391.555 378.02V376.02ZM387.672 377.291C386.561 378.187 386.04 379.451 386.04 380.94H388.04C388.04 379.956 388.359 379.306 388.927 378.849L387.672 377.291ZM386.04 380.94C386.04 382.02 386.343 382.993 387.022 383.769L388.527 382.451C388.226 382.107 388.04 381.633 388.04 380.94H386.04ZM387.038 383.786C387.652 384.456 388.391 384.97 389.243 385.327L390.017 383.483C389.422 383.233 388.924 382.884 388.512 382.434L387.038 383.786ZM389.279 385.341C390.064 385.636 391.134 385.971 392.475 386.348L393.015 384.422C391.696 384.052 390.689 383.734 389.981 383.469L389.279 385.341ZM392.479 386.349C394.063 386.785 395.303 387.213 396.218 387.626L397.042 385.804C395.996 385.331 394.646 384.871 393.01 384.421L392.479 386.349ZM396.236 387.634C397.047 387.982 397.753 388.535 398.357 389.32L399.942 388.1C399.146 387.065 398.173 386.288 397.024 385.796L396.236 387.634ZM398.365 389.33C398.883 389.985 399.2 390.954 399.2 392.35H401.2C401.2 390.666 400.817 389.208 399.935 388.09L398.365 389.33ZM399.2 392.35C399.2 393.353 398.937 394.296 398.397 395.196L400.112 396.224C400.833 395.024 401.2 393.727 401.2 392.35H399.2ZM398.397 395.196C397.874 396.068 397.086 396.8 395.988 397.381L396.922 399.149C398.297 398.423 399.376 397.452 400.112 396.224L398.397 395.196ZM395.988 397.381C394.921 397.944 393.63 398.245 392.08 398.245V400.245C393.89 400.245 395.515 399.892 396.922 399.149L395.988 397.381ZM426.482 393.575L427.422 393.235L427.184 392.575H426.482V393.575ZM415.842 393.575V392.575H415.14L414.901 393.235L415.842 393.575ZM413.882 399V400H414.584L414.822 399.34L413.882 399ZM410.522 399L409.582 398.658L409.094 400H410.522V399ZM419.342 374.745V373.745H418.641L418.402 374.403L419.342 374.745ZM423.017 374.745L423.957 374.404L423.718 373.745H423.017V374.745ZM431.802 399V400H433.228L432.742 398.659L431.802 399ZM428.442 399L427.501 399.34L427.74 400H428.442V399ZM425.572 390.985V391.985H426.992L426.513 390.648L425.572 390.985ZM421.162 378.665L422.103 378.328L421.162 375.698L420.22 378.328L421.162 378.665ZM416.752 390.985L415.81 390.648L415.332 391.985H416.752V390.985ZM426.482 392.575H415.842V394.575H426.482V392.575ZM414.901 393.235L412.941 398.66L414.822 399.34L416.782 393.915L414.901 393.235ZM413.882 398H410.522V400H413.882V398ZM411.462 399.342L420.282 375.087L418.402 374.403L409.582 398.658L411.462 399.342ZM419.342 375.745H423.017V373.745H419.342V375.745ZM422.077 375.086L430.862 399.341L432.742 398.659L423.957 374.404L422.077 375.086ZM431.802 398H428.442V400H431.802V398ZM429.382 398.66L427.422 393.235L425.541 393.915L427.501 399.34L429.382 398.66ZM426.513 390.648L422.103 378.328L420.22 379.002L424.63 391.322L426.513 390.648ZM420.22 378.328L415.81 390.648L417.693 391.322L422.103 379.002L420.22 378.328ZM416.752 391.985H425.572V389.985H416.752V391.985ZM461.616 374.605H462.616V373.605H461.616V374.605ZM461.616 399V400H462.616V399H461.616ZM458.431 399H457.431V400H458.431V399ZM458.431 387.94H459.431V386.94H458.431V387.94ZM446.006 387.94V386.94H445.006V387.94H446.006ZM446.006 399V400H447.006V399H446.006ZM442.821 399H441.821V400H442.821V399ZM442.821 374.605V373.605H441.821V374.605H442.821ZM446.006 374.605H447.006V373.605H446.006V374.605ZM446.006 385.315H445.006V386.315H446.006V385.315ZM458.431 385.315V386.315H459.431V385.315H458.431ZM458.431 374.605V373.605H457.431V374.605H458.431ZM460.616 374.605V399H462.616V374.605H460.616ZM461.616 398H458.431V400H461.616V398ZM459.431 399V387.94H457.431V399H459.431ZM458.431 386.94H446.006V388.94H458.431V386.94ZM445.006 387.94V399H447.006V387.94H445.006ZM446.006 398H442.821V400H446.006V398ZM443.821 399V374.605H441.821V399H443.821ZM442.821 375.605H446.006V373.605H442.821V375.605ZM445.006 374.605V385.315H447.006V374.605H445.006ZM446.006 386.315H458.431V384.315H446.006V386.315ZM459.431 385.315V374.605H457.431V385.315H459.431ZM458.431 375.605H461.616V373.605H458.431V375.605ZM488.649 393.575L489.59 393.235L489.351 392.575H488.649V393.575ZM478.009 393.575V392.575H477.307L477.069 393.235L478.009 393.575ZM476.049 399V400H476.751L476.99 399.34L476.049 399ZM472.689 399L471.749 398.658L471.261 400H472.689V399ZM481.509 374.745V373.745H480.809L480.569 374.403L481.509 374.745ZM485.184 374.745L486.124 374.404L485.886 373.745H485.184V374.745ZM493.969 399V400H495.395L494.909 398.659L493.969 399ZM490.609 399L489.669 399.34L489.907 400H490.609V399ZM487.739 390.985V391.985H489.159L488.681 390.648L487.739 390.985ZM483.329 378.665L484.271 378.328L483.329 375.698L482.388 378.328L483.329 378.665ZM478.919 390.985L477.978 390.648L477.499 391.985H478.919V390.985ZM488.649 392.575H478.009V394.575H488.649V392.575ZM477.069 393.235L475.109 398.66L476.99 399.34L478.95 393.915L477.069 393.235ZM476.049 398H472.689V400H476.049V398ZM473.629 399.342L482.449 375.087L480.569 374.403L471.749 398.658L473.629 399.342ZM481.509 375.745H485.184V373.745H481.509V375.745ZM484.244 375.086L493.029 399.341L494.909 398.659L486.124 374.404L484.244 375.086ZM493.969 398H490.609V400H493.969V398ZM491.55 398.66L489.59 393.235L487.709 393.915L489.669 399.34L491.55 398.66ZM488.681 390.648L484.271 378.328L482.388 379.002L486.798 391.322L488.681 390.648ZM482.388 378.328L477.978 390.648L479.861 391.322L484.271 379.002L482.388 378.328ZM478.919 391.985H487.739V389.985H478.919V391.985ZM517.273 374.605H518.273V373.605H517.273V374.605ZM515.418 397.46L516.112 398.181L516.118 398.174L515.418 397.46ZM505.583 397.425L504.876 398.132L504.883 398.139L505.583 397.425ZM503.728 392.385V391.385H502.728V392.385H503.728ZM506.913 392.385L507.913 392.365L507.894 391.385H506.913V392.385ZM507.823 395.29L507.035 395.906L507.041 395.913L507.047 395.921L507.823 395.29ZM513.178 395.36L513.946 396L513.952 395.994L513.957 395.988L513.178 395.36ZM514.053 374.605V373.605H513.053V374.605H514.053ZM516.273 374.605V392.63H518.273V374.605H516.273ZM516.273 392.63C516.273 394.414 515.732 395.751 514.718 396.746L516.118 398.174C517.577 396.742 518.273 394.859 518.273 392.63H516.273ZM514.725 396.739C513.708 397.718 512.34 398.245 510.518 398.245V400.245C512.756 400.245 514.655 399.582 516.112 398.181L514.725 396.739ZM510.518 398.245C508.675 398.245 507.299 397.708 506.283 396.711L504.883 398.139C506.341 399.569 508.255 400.245 510.518 400.245V398.245ZM506.29 396.718C505.28 395.708 504.728 394.304 504.728 392.385H502.728C502.728 394.713 503.413 396.669 504.876 398.132L506.29 396.718ZM503.728 393.385H506.913V391.385H503.728V393.385ZM505.913 392.405C505.94 393.755 506.288 394.949 507.035 395.906L508.611 394.674C508.192 394.138 507.933 393.395 507.913 392.365L505.913 392.405ZM507.047 395.921C507.888 396.956 509.105 397.41 510.518 397.41V395.41C509.551 395.41 508.972 395.118 508.599 394.659L507.047 395.921ZM510.518 397.41C511.908 397.41 513.118 396.994 513.946 396L512.41 394.72C512.071 395.126 511.509 395.41 510.518 395.41V397.41ZM513.957 395.988C514.708 395.056 515.053 393.912 515.053 392.63H513.053C513.053 393.541 512.815 394.217 512.4 394.732L513.957 395.988ZM515.053 392.63V374.605H513.053V392.63H515.053ZM514.053 375.605H517.273V373.605H514.053V375.605ZM559.514 374.605H560.514V373.605H559.514V374.605ZM557.659 397.46L558.352 398.181L558.359 398.174L557.659 397.46ZM547.824 397.425L547.117 398.132L547.123 398.139L547.824 397.425ZM545.969 392.385V391.385H544.969V392.385H545.969ZM549.154 392.385L550.154 392.365L550.134 391.385H549.154V392.385ZM550.064 395.29L549.276 395.906L549.282 395.913L549.288 395.921L550.064 395.29ZM555.419 395.36L556.187 396L556.192 395.994L556.197 395.988L555.419 395.36ZM556.294 374.605V373.605H555.294V374.605H556.294ZM558.514 374.605V392.63H560.514V374.605H558.514ZM558.514 392.63C558.514 394.414 557.973 395.751 556.958 396.746L558.359 398.174C559.818 396.742 560.514 394.859 560.514 392.63H558.514ZM556.965 396.739C555.949 397.718 554.581 398.245 552.759 398.245V400.245C554.997 400.245 556.896 399.582 558.352 398.181L556.965 396.739ZM552.759 398.245C550.915 398.245 549.54 397.708 548.524 396.711L547.123 398.139C548.581 399.569 550.496 400.245 552.759 400.245V398.245ZM548.531 396.718C547.521 395.708 546.969 394.304 546.969 392.385H544.969C544.969 394.713 545.654 396.669 547.117 398.132L548.531 396.718ZM545.969 393.385H549.154V391.385H545.969V393.385ZM548.154 392.405C548.18 393.755 548.528 394.949 549.276 395.906L550.852 394.674C550.433 394.138 550.174 393.395 550.154 392.365L548.154 392.405ZM549.288 395.921C550.129 396.956 551.346 397.41 552.759 397.41V395.41C551.792 395.41 551.212 395.118 550.84 394.659L549.288 395.921ZM552.759 397.41C554.148 397.41 555.359 396.994 556.187 396L554.651 394.72C554.312 395.126 553.749 395.41 552.759 395.41V397.41ZM556.197 395.988C556.949 395.056 557.294 393.912 557.294 392.63H555.294C555.294 393.541 555.056 394.217 554.64 394.732L556.197 395.988ZM557.294 392.63V374.605H555.294V392.63H557.294ZM556.294 375.605H559.514V373.605H556.294V375.605ZM576.148 374.605H577.148V373.605H576.148V374.605ZM576.148 399V400H577.148V399H576.148ZM572.963 399H571.963V400H572.963V399ZM572.963 374.605V373.605H571.963V374.605H572.963ZM575.148 374.605V399H577.148V374.605H575.148ZM576.148 398H572.963V400H576.148V398ZM573.963 399V374.605H571.963V399H573.963ZM572.963 375.605H576.148V373.605H572.963V375.605ZM619.412 374.605L620.372 374.883L620.743 373.605H619.412V374.605ZM612.342 399V400H613.093L613.302 399.278L612.342 399ZM608.772 399L607.811 399.277L608.02 400H608.772V399ZM603.102 379.365L604.062 379.088L603.119 375.821L602.144 379.078L603.102 379.365ZM597.222 399L597.232 400L597.968 399.993L598.18 399.287L597.222 399ZM593.687 399.035L592.724 399.304L592.93 400.043L593.697 400.035L593.687 399.035ZM586.862 374.605V373.605H585.544L585.899 374.874L586.862 374.605ZM590.257 374.605L591.225 374.356L591.032 373.605H590.257V374.605ZM595.577 395.29L594.608 395.539L595.528 399.117L596.539 395.563L595.577 395.29ZM601.457 374.605V373.605H600.701L600.495 374.332L601.457 374.605ZM605.027 374.605L605.992 374.343L605.791 373.605H605.027V374.605ZM610.627 395.22L609.662 395.482L610.648 399.114L611.595 395.471L610.627 395.22ZM615.982 374.605V373.605H615.208L615.014 374.354L615.982 374.605ZM618.451 374.327L611.381 398.722L613.302 399.278L620.372 374.883L618.451 374.327ZM612.342 398H608.772V400H612.342V398ZM609.732 398.723L604.062 379.088L602.141 379.642L607.811 399.277L609.732 398.723ZM602.144 379.078L596.264 398.713L598.18 399.287L604.06 379.652L602.144 379.078ZM597.212 398L593.677 398.035L593.697 400.035L597.232 400L597.212 398ZM594.65 398.766L587.825 374.336L585.899 374.874L592.724 399.304L594.65 398.766ZM586.862 375.605H590.257V373.605H586.862V375.605ZM589.288 374.854L594.608 395.539L596.545 395.041L591.225 374.356L589.288 374.854ZM596.539 395.563L602.419 374.878L600.495 374.332L594.615 395.017L596.539 395.563ZM601.457 375.605H605.027V373.605H601.457V375.605ZM604.062 374.867L609.662 395.482L611.592 394.958L605.992 374.343L604.062 374.867ZM611.595 395.471L616.95 374.856L615.014 374.354L609.659 394.969L611.595 395.471ZM615.982 375.605H619.412V373.605H615.982V375.605ZM644.492 393.575L645.433 393.235L645.194 392.575H644.492V393.575ZM633.852 393.575V392.575H633.15L632.912 393.235L633.852 393.575ZM631.892 399V400H632.594L632.833 399.34L631.892 399ZM628.532 399L627.592 398.658L627.104 400H628.532V399ZM637.352 374.745V373.745H636.652L636.412 374.403L637.352 374.745ZM641.027 374.745L641.967 374.404L641.729 373.745H641.027V374.745ZM649.812 399V400H651.238L650.752 398.659L649.812 399ZM646.452 399L645.512 399.34L645.75 400H646.452V399ZM643.582 390.985V391.985H645.002L644.524 390.648L643.582 390.985ZM639.172 378.665L640.114 378.328L639.172 375.698L638.231 378.328L639.172 378.665ZM634.762 390.985L633.821 390.648L633.342 391.985H634.762V390.985ZM644.492 392.575H633.852V394.575H644.492V392.575ZM632.912 393.235L630.952 398.66L632.833 399.34L634.793 393.915L632.912 393.235ZM631.892 398H628.532V400H631.892V398ZM629.472 399.342L638.292 375.087L636.412 374.403L627.592 398.658L629.472 399.342ZM637.352 375.745H641.027V373.745H637.352V375.745ZM640.087 375.086L648.872 399.341L650.752 398.659L641.967 374.404L640.087 375.086ZM649.812 398H646.452V400H649.812V398ZM647.393 398.66L645.433 393.235L643.552 393.915L645.512 399.34L647.393 398.66ZM644.524 390.648L640.114 378.328L638.231 379.002L642.641 391.322L644.524 390.648ZM638.231 378.328L633.821 390.648L635.704 391.322L640.114 379.002L638.231 378.328ZM634.762 391.985H643.582V389.985H634.762V391.985ZM680.011 399V400H681.011V399H680.011ZM676.826 399L675.991 399.551L676.288 400H676.826V399ZM664.016 379.575L664.851 379.024L663.016 376.242V379.575H664.016ZM664.016 399V400H665.016V399H664.016ZM660.831 399H659.831V400H660.831V399ZM660.831 374.57V373.57H659.831V374.57H660.831ZM664.016 374.57L664.85 374.019L664.554 373.57H664.016V374.57ZM676.826 393.96L675.992 394.511L677.826 397.288V393.96H676.826ZM676.826 374.57V373.57H675.826V374.57H676.826ZM680.011 374.57H681.011V373.57H680.011V374.57ZM680.011 398H676.826V400H680.011V398ZM677.661 398.449L664.851 379.024L663.181 380.126L675.991 399.551L677.661 398.449ZM663.016 379.575V399H665.016V379.575H663.016ZM664.016 398H660.831V400H664.016V398ZM661.831 399V374.57H659.831V399H661.831ZM660.831 375.57H664.016V373.57H660.831V375.57ZM663.182 375.121L675.992 394.511L677.66 393.409L664.85 374.019L663.182 375.121ZM677.826 393.96V374.57H675.826V393.96H677.826ZM676.826 375.57H680.011V373.57H676.826V375.57ZM679.011 374.57V399H681.011V374.57H679.011Z" fill="#F5F5F5"/>
<path d="M126.699 325.799C120.843 325.799 115.595 324.848 110.956 322.947C106.317 321.045 102.59 318.231 99.7761 314.505C97.0382 310.778 95.5932 306.291 95.4411 301.043H116.204C116.508 304.009 117.535 306.291 119.284 307.888C121.033 309.409 123.315 310.17 126.129 310.17C129.019 310.17 131.3 309.523 132.973 308.23C134.647 306.861 135.483 304.998 135.483 302.64C135.483 300.663 134.799 299.028 133.43 297.735C132.137 296.442 130.502 295.377 128.524 294.541C126.623 293.704 123.885 292.753 120.31 291.689C115.139 290.092 110.918 288.494 107.648 286.897C104.377 285.3 101.563 282.943 99.2057 279.824C96.8481 276.706 95.6692 272.637 95.6692 267.618C95.6692 260.165 98.3691 254.347 103.769 250.164C109.169 245.905 116.204 243.775 124.874 243.775C133.696 243.775 140.807 245.905 146.207 250.164C151.606 254.347 154.496 260.203 154.877 267.732H133.772C133.62 265.146 132.669 263.131 130.92 261.686C129.171 260.165 126.927 259.404 124.189 259.404C121.832 259.404 119.93 260.051 118.485 261.343C117.04 262.56 116.318 264.348 116.318 266.705C116.318 269.291 117.535 271.306 119.968 272.751C122.402 274.196 126.205 275.756 131.376 277.429C136.548 279.178 140.731 280.851 143.925 282.448C147.195 284.045 150.009 286.365 152.367 289.407C154.725 292.449 155.903 296.366 155.903 301.157C155.903 305.721 154.725 309.865 152.367 313.592C150.085 317.319 146.739 320.285 142.328 322.49C137.917 324.696 132.707 325.799 126.699 325.799ZM251.985 310.854H222.096L217.305 325H196.885L225.861 244.916H248.449L277.425 325H256.777L251.985 310.854ZM246.966 295.796L237.041 266.477L227.23 295.796H246.966ZM389.829 244.916V325H370.321V292.031H339.976V325H320.468V244.916H339.976V276.288H370.321V244.916H389.829ZM487.988 310.854H458.099L453.308 325H432.888L461.864 244.916H484.452L513.428 325H492.779L487.988 310.854ZM482.969 295.796L473.044 266.477L463.233 295.796H482.969ZM606.666 244.916V299.446C606.666 307.888 604.27 314.391 599.479 318.954C594.764 323.517 588.375 325.799 580.314 325.799C571.872 325.799 565.103 323.403 560.007 318.612C554.912 313.82 552.364 307.013 552.364 298.191H571.758C571.758 301.538 572.442 304.085 573.811 305.835C575.18 307.508 577.157 308.344 579.743 308.344C582.101 308.344 583.926 307.584 585.219 306.063C586.512 304.542 587.158 302.336 587.158 299.446V244.916H606.666Z" fill="#F5F5F5"/>
<path d="M68.4308 92.4737V175L94.0923 153.386V94.4386H113.338V102.298H139V63H113.338V70.8596H94.0923L91.9538 64.9649H40.6308C33.5026 69.5497 15.3969 82.6491 0 98.3685C35.9262 82.6492 60.5897 87.8889 68.4308 92.4737Z" fill="#F5F5F5"/>
<path d="M140.7 96.4792L50.9561 187.051H88.9245L156.232 116.169L140.7 96.4792Z" fill="#F5F5F5"/>
<path d="M156.232 68.9137L170.039 53.162L176.942 45.2861L220.088 94.5102L199.378 118.138L156.232 68.9137Z" fill="#F5F5F5"/>
<path d="M149.329 108.293L163.136 92.5412L138.974 64.9758L159.684 41.3482L170.039 53.162M170.039 53.162L156.232 68.9137L199.378 118.138L220.088 94.5102L176.942 45.2861L170.039 53.162Z" stroke="#F5F5F5" stroke-width="4.29209"/>
<path d="M235.6 0L189 47.25L206.259 68.9062L235.6 35.4375L382.304 189H655V161.438H394.385L235.6 0Z" fill="#F5F5F5"/>
<rect x="204.393" y="129.952" width="25.7526" height="23.6276" fill="#F5F5F5"/>
<rect x="204.393" y="165.393" width="25.7526" height="23.6276" fill="#F5F5F5"/>
<rect x="243.021" y="129.952" width="25.7526" height="23.6276" fill="#F5F5F5"/>
<rect x="243.021" y="165.393" width="25.7526" height="23.6276" fill="#F5F5F5"/>
</svg>
