<svg width="16" height="15" viewBox="0 0 16 15" fill="none" xmlns="http://www.w3.org/2000/svg">
<path d="M0.5 1.61975C0.501373 1.42278 0.580175 1.23426 0.719385 1.09491C0.858594 0.955563 1.04704 0.876571 1.244 0.875H14.756C15.167 0.875 15.5 1.20875 15.5 1.61975V13.6302C15.4986 13.8272 15.4198 14.0157 15.2806 14.1551C15.1414 14.2944 14.953 14.3734 14.756 14.375H1.244C1.04661 14.3748 0.857373 14.2962 0.717867 14.1566C0.578362 14.017 0.5 13.8276 0.5 13.6302V1.61975ZM2 2.375V12.875H14V2.375H2ZM3.5 3.875H8V8.375H3.5V3.875ZM5 5.375V6.875H6.5V5.375H5ZM3.5 9.875H12.5V11.375H3.5V9.875ZM9.5 3.875H12.5V5.375H9.5V3.875ZM9.5 6.875H12.5V8.375H9.5V6.875Z" fill="#475569"/>
</svg>
