<svg width="48" height="49" viewBox="0 0 48 49" fill="none" xmlns="http://www.w3.org/2000/svg">
<g clip-path="url(#clip0_24_1646)">
<path d="M33.3768 11.8716C32.3499 11.8716 31.5382 12.7931 31.7238 13.8544C31.8648 14.6604 32.5949 15.2306 33.413 15.2306H34.8323C34.8728 15.2306 34.9123 15.2353 34.9504 15.2436C35.0192 14.7075 35.0563 14.1616 35.0563 13.607C35.0563 13.0549 35.0152 12.5201 34.9464 11.9873C34.9027 11.9487 34.8703 11.9201 34.8268 11.8815L33.3768 11.8716Z" fill="#FFDB2D"/>
<path d="M33.2651 48.8305H11.0511C10.1263 48.8305 9.37671 48.0808 9.37671 47.1561V36.0491C9.37671 32.4456 10.9099 28.9912 13.5834 26.5716C14.2578 25.9611 15.2964 26.001 15.9223 26.6612L22.1493 33.232L28.3851 26.6533C29.0068 25.9973 30.0371 25.9531 30.7127 26.5536C33.32 28.8711 34.9395 32.3031 34.9395 36.049V47.1561C34.9394 48.0808 34.1898 48.8305 33.2651 48.8305Z" fill="#B9F7F9"/>
<path d="M30.6942 26.5538C30.0156 25.9532 28.9808 25.9975 28.3564 26.6534L22.1023 33.2228V48.8305H33.2651C34.1899 48.8305 34.9395 48.0807 34.9395 47.1561V36.0491C34.9395 32.3032 33.3129 28.8712 30.6942 26.5538Z" fill="#00D8E0"/>
<path d="M20.9338 36.818L13.4916 28.9649C12.8449 28.2825 12.8875 27.2017 13.5831 26.5719C18.447 22.1682 25.8586 22.1674 30.7228 26.5631C31.4208 27.1939 31.4615 28.2758 30.8154 28.9572L23.3642 36.8181C22.7041 37.5148 21.5935 37.5141 20.9338 36.818Z" fill="#FF9900"/>
<path d="M30.7788 26.563C28.3479 24.3664 25.2811 23.2678 22.2139 23.2678V37.34C22.6535 37.3376 23.0923 37.164 23.4201 36.8182L30.8713 28.9573C31.5174 28.2758 31.4768 27.1937 30.7788 26.563Z" fill="#FF4F19"/>
<path d="M22.1581 26.3933C15.1104 26.3933 9.37671 20.6595 9.37671 13.6119C9.37671 6.56419 15.1105 0.830444 22.1581 0.830444C29.2058 0.830444 34.9395 6.56419 34.9395 13.6119C34.9395 20.6595 29.2059 26.3933 22.1581 26.3933Z" fill="#FFDB2D"/>
<path d="M22.2139 0.830444V26.3933C29.2616 26.3933 34.9953 20.6596 34.9953 13.6119C34.9953 6.5641 29.2616 0.830444 22.2139 0.830444Z" fill="#FF9900"/>
<path d="M34.8224 11.8843C34.8991 12.4495 34.9396 13.026 34.9396 13.6118C34.9396 14.1647 34.9026 14.709 34.8341 15.2434C35.0854 15.2977 35.2745 15.5213 35.2745 15.7885V17.7978C35.2745 18.1056 35.024 18.3559 34.7164 18.3559H25.4512C24.5265 18.3559 23.7769 19.1057 23.7769 20.0303C23.7769 20.955 24.5266 21.7047 25.4512 21.7047H34.7164C36.8706 21.7047 38.6233 19.952 38.6233 17.7977V15.7884C38.6233 13.6698 36.9277 11.9408 34.8224 11.8843Z" fill="#808285"/>
</g>
<defs>
<clipPath id="clip0_24_1646">
<rect width="48" height="48" fill="white" transform="translate(0 0.830444)"/>
</clipPath>
</defs>
</svg>
