<svg width="48" height="49" viewBox="0 0 48 49" fill="none" xmlns="http://www.w3.org/2000/svg">
<g clip-path="url(#clip0_24_1614)">
<path d="M25.0436 11.2652H6.26099V0.830444H24.0001L25.0436 11.2652Z" fill="#BEC8D6"/>
<path d="M23.9999 48.8305H3.13037V11.2653H23.9999L25.0434 30.0479L23.9999 48.8305Z" fill="#8799B3"/>
<path d="M44.8696 11.2653H24V48.8305H44.8696V11.2653Z" fill="#6B81A1"/>
<path d="M6.26099 45.7001H24.0001V29.0044L14.0871 37.3522L6.26099 45.7001Z" fill="#FFEAC3"/>
<path d="M6.26099 29.0044V45.7001L24.0001 29.0044H6.26099Z" fill="white"/>
<path d="M41.7391 29.0044H27.1304V48.8305H41.7391V29.0044Z" fill="#354A67"/>
<path d="M38.6088 32.1348H30.261V45.7H38.6088V32.1348Z" fill="#FFD488"/>
<path d="M41.7391 0.830444H24V11.2652H41.7391V0.830444Z" fill="#A3B1C4"/>
<path d="M3.13043 10.2218L0 19.6131L6.08692 20.6566L12.1739 19.6131L13.8798 14.9175L13.5652 10.2218H3.13043Z" fill="#FFB739"/>
<path d="M13.5653 10.2218L12.1741 19.6131L18.087 20.6566L24.0001 19.6131L25.0436 14.9175L24.0001 10.2218H13.5653Z" fill="#FFD488"/>
<path d="M34.4348 10.2218H24V19.6131L29.9131 20.6566L35.8261 19.6131L36.1897 14.9175L34.4348 10.2218Z" fill="#FFB739"/>
<path d="M48 19.6131L44.8696 10.2218H34.4348L35.8261 19.6131L41.9131 20.6566L48 19.6131Z" fill="#FFD488"/>
<path d="M12.1741 19.613V21.6709C13.0254 24.1174 15.3504 25.8739 18.087 25.8739C20.8237 25.8739 23.1486 24.1174 24.0001 21.6709V19.613H12.1741Z" fill="#FFB739"/>
<path d="M0 19.613C0 23.0708 2.8031 25.8739 6.26087 25.8739C8.9975 25.8739 11.3225 24.1174 12.174 21.6709V19.613H0Z" fill="#FB992D"/>
<path d="M24 19.613V21.6709C24.8514 24.1174 27.1765 25.8739 29.9131 25.8739C32.6497 25.8739 34.9747 24.1174 35.8262 21.6709V19.613H24Z" fill="#FB992D"/>
<path d="M35.8262 19.613V21.6709C36.6777 24.1174 39.0026 25.8739 41.7392 25.8739C45.197 25.8739 48.0001 23.0708 48.0001 19.613H35.8262Z" fill="#FFB739"/>
</g>
<defs>
<clipPath id="clip0_24_1614">
<rect width="48" height="48" fill="white" transform="translate(0 0.830444)"/>
</clipPath>
</defs>
</svg>
