<svg width="46" height="40" viewBox="0 0 46 40" fill="none" xmlns="http://www.w3.org/2000/svg">
<path d="M45.3286 0.377212C39.2522 -0.668392 34.6106 0.459755 31.4036 3.76166C28.2529 7.06355 26.6775 11.9614 26.6775 18.4551V40H45.3286V20.1061H35.6233C35.1732 16.584 35.567 13.6398 36.8048 11.2735C38.0989 8.85208 40.5744 7.77896 44.2315 8.05412L45.3286 0.377212ZM19.3352 0.377212C13.2588 -0.668392 8.61714 0.459755 5.41016 3.76166C2.25944 7.06355 0.684082 11.9614 0.684082 18.4551V40H19.3352V20.1061H9.62987C9.17977 16.584 9.57361 13.6398 10.8114 11.2735C12.1054 8.85208 14.581 7.77896 18.2381 8.05412L19.3352 0.377212Z" fill="#F58634"/>
</svg>
